<?xml version="1.0" encoding="UTF-8"?>
<svg width="180px" height="87px" viewBox="0 0 180 87" version="1.1" xmlns="http://www.w3.org/2000/svg" xmlns:xlink="http://www.w3.org/1999/xlink">
    <!-- Generator: Sketch 50.2 (55047) - http://www.bohemiancoding.com/sketch -->
    <title>LOGO Copy</title>
    <desc>Created with Sketch.</desc>
    <defs>
        <polygon id="path-1" points="0.0199932852 0.179307595 29.191805 0.179307595 29.191805 45.3870554 0.0199932852 45.3870554"></polygon>
        <polygon id="path-3" points="0 0.262210786 25.5011184 0.262210786 25.5011184 49.3273413 0 49.3273413"></polygon>
    </defs>
    <g id="Page-1" stroke="none" stroke-width="1" fill="none" fill-rule="evenodd">
        <g id="form" transform="translate(-200.000000, -135.000000)">
            <g id="LOGO-Copy" transform="translate(200.000000, 135.000000)">
                <path d="M14.7294209,26.3386828 C14.442161,26.3386828 14.1876488,26.1795408 14.0595309,25.9238796 C13.8682159,25.541824 14.0279323,25.0954222 14.3789639,24.9357057 C15.2395944,24.4893039 16.2593668,24.3301619 17.375084,24.4893039 C17.7898873,24.5536501 18.0765726,24.9041071 18.0133754,25.3183358 C17.9490292,25.733139 17.5985722,26.0198244 17.183769,25.9560527 C16.3553116,25.8601079 15.6222245,25.9560527 15.0161062,26.2749111 C14.9523345,26.3065097 14.8569643,26.3386828 14.7294209,26.3386828 M21.998244,28.2834319 C21.8069289,28.2834319 21.6156139,28.2196602 21.4880705,28.0605183 C20.9457239,27.5497703 20.2448099,27.0401713 19.5111483,26.6891398 C19.1285181,26.4978247 19.0015493,26.0514229 19.1928643,25.7009659 C19.3841794,25.3183358 19.8305812,25.1907924 20.1810382,25.3821075 C21.0738418,25.8285093 21.8707006,26.4024545 22.5405906,27.0401713 C22.8272759,27.3268566 22.8272759,27.8054315 22.5405906,28.0921169 C22.3802996,28.1874871 22.1889845,28.2834319 21.998244,28.2834319 M13.6769008,30.7383546 C13.4539872,30.7383546 13.2310735,30.6424098 13.0713571,30.4510947 C12.4974119,29.6542359 12.179128,28.8889757 12.179128,28.0921169 C12.179128,27.8370301 12.2107266,27.5819434 12.2744982,27.3268566 C12.370443,26.9442265 12.7840972,26.6891398 13.1989004,26.8172577 C13.5815305,26.912628 13.8366173,27.3268566 13.7090739,27.7410853 C13.6769008,27.8692032 13.6453022,27.9967466 13.6453022,28.1237155 C13.6453022,28.5701173 13.8366173,29.0486922 14.2186729,29.5904642 C14.4743341,29.9093226 14.4099879,30.387323 14.0595309,30.6424098 C13.9641607,30.706756 13.8366173,30.7383546 13.6769008,30.7383546 M25.6964272,33.0019621 C25.4097419,33.0019621 25.1546552,32.8422457 25.0271118,32.5871589 C24.931167,32.7147023 24.7714505,32.8106471 24.5801355,32.8422457 C24.1664813,32.9060173 23.7838512,32.6509306 23.719505,32.2367019 C23.560363,31.4398431 23.3052763,30.6745829 22.9226462,29.9414958 C22.7319056,29.5904642 22.8588745,29.1124638 23.2415046,28.9211488 C23.5925361,28.7298337 24.0705365,28.8573771 24.2618516,29.2400072 C24.6760803,30.0046929 24.9627656,30.8337248 25.1546552,31.6949298 C25.2184268,31.6305836 25.3137971,31.5673865 25.4097419,31.5036148 C26.142829,31.1847564 26.8764907,30.7699531 27.6411764,30.2919528 C27.9916334,30.0690391 28.4380352,30.1644094 28.6615233,30.5154409 C28.8850115,30.8658979 28.7890667,31.3122997 28.4380352,31.5352134 C27.6095778,32.0453869 26.8121445,32.4917886 26.0152856,32.8422457 C25.8877423,33.0019621 25.792372,33.0019621 25.6964272,33.0019621 M17.9490292,33.7672224 C17.8530844,33.7672224 17.7898873,33.7672224 17.6939425,33.7350493 C16.8654851,33.4483639 15.9726815,32.969789 15.1752482,32.428017 C14.8247911,32.2045288 14.7610195,31.7265284 14.9839331,31.3760714 C15.2074213,31.0250399 15.6854216,30.9612682 16.0358787,31.1847564 C16.7379417,31.6627567 17.5348005,32.0769854 18.204116,32.3326467 C18.5867461,32.4596155 18.7780611,32.9060173 18.6505178,33.2886475 C18.5551475,33.5759073 18.2678876,33.7672224 17.9490292,33.7672224 M20.6912117,34.1814511 L20.5630938,34.1814511 C20.1494396,34.1814511 19.8305812,33.830994 19.8305812,33.4161908 C19.8305812,33.0019621 20.1810382,32.6831037 20.5952669,32.6831037 L20.7233848,32.6831037 C21.4880705,32.6831037 22.2533307,32.5871589 23.0501895,32.3958439 C23.4644182,32.3004736 23.8470483,32.5555603 23.9429931,32.9381904 C24.0383634,33.3524191 23.7838512,33.7350493 23.4012211,33.830994 C22.4446458,34.0855063 21.5518422,34.1814511 20.6912117,34.1814511 M24.1021351,38.134721 C24.0383634,38.134721 23.9751662,38.134721 23.8792214,38.1031225 C23.4965913,37.9750046 23.2415046,37.5607759 23.369048,37.1781458 C23.6241347,36.3491138 23.7516781,35.5206564 23.8154498,34.7232231 C23.8470483,34.3089944 24.1975054,33.990136 24.6123086,34.0223091 C25.0271118,34.0539077 25.3459702,34.4049392 25.3137971,34.8191679 C25.2500254,35.711397 25.0587104,36.6363737 24.8036236,37.5607759 C24.7082534,37.9118074 24.4209935,38.134721 24.1021351,38.134721 M21.7431572,42.8848498 C21.5840153,42.8848498 21.4564719,42.8532512 21.328354,42.757881 C20.977897,42.5343928 20.9146999,42.0558179 21.137039,41.7053609 C21.6156139,41.0038724 22.0620157,40.2707852 22.4446458,39.5376981 C22.6359608,39.155068 23.0823626,39.0275246 23.4328196,39.1866666 C23.8154498,39.3779816 23.9429931,39.8243834 23.7838512,40.1748404 C23.369048,41.0038724 22.8910476,41.8013057 22.3802996,42.5343928 C22.2211576,42.757881 21.998244,42.8848498 21.7431572,42.8848498" id="Fill-1" fill="#000001"></path>
                <path d="M30.1914693,30.2281811 C29.9685556,30.2281811 29.745642,30.1322363 29.5859255,29.9409212 C29.3308388,29.6226373 29.3946105,29.1440624 29.7134689,28.8889757 C30.0323273,28.6344635 30.3827843,28.3472036 30.7332413,28.0605183 C31.0526743,27.8054315 31.5306747,27.8370301 31.7857614,28.1558886 C32.0408481,28.474747 32.008675,28.9527474 31.6898166,29.2078341 C31.3393596,29.495094 30.9567295,29.8133779 30.6062725,30.0690391 C30.5109022,30.1644094 30.3506112,30.2281811 30.1914693,30.2281811" id="Fill-3" fill="#000001"></path>
                <path d="M51.997996,16.0565039 C52.288703,16.685603 53.0390257,16.9602234 53.6681248,16.6695164 C54.2972238,16.3788095 54.5718442,15.6336574 54.2817118,14.9993877 C53.9910048,14.3702886 53.2452783,14.0956682 52.6110085,14.3863752 C51.982484,14.6770821 51.7072891,15.4222342 51.997996,16.0565039 Z M54.0858006,23.7889644 L49.1914673,13.1810329 L49.926278,12.8426408 C52.8597756,11.4844762 56.3166605,12.7581864 57.6690799,15.6974291 C59.0278189,18.6355228 57.7541088,22.0924078 54.8206113,23.4454016 L54.0858006,23.7889644 Z" id="Fill-5" fill="#FFCB00"></path>
                <path d="M54.281482,14.9992153 C54.5721889,15.6334851 54.296994,16.3786371 53.6684695,16.6693441 C53.0393704,16.9606255 52.2884732,16.6854306 51.9977662,16.0563316 C51.7076338,15.4220618 51.9822542,14.6769098 52.6113532,14.3862028 C53.2450485,14.0954959 53.990775,14.3701163 54.281482,14.9992153" id="Fill-7" fill="#000001"></path>
                <polygon id="Fill-9" fill="#FFCB00" points="45.7293543 14.7826214 50.624262 25.3853823 47.8912718 26.6487511 42.9969386 16.0459902"></polygon>
                <path d="M44.2705913,28.0229447 C41.8127961,28.3716782 39.2808878,27.0657949 38.192173,24.6981993 C37.0982875,22.3357743 37.7480693,19.5608442 39.6037679,17.9113982 L44.2705913,28.0229447 Z" id="Fill-11" fill="#FFCB00"></path>
                <path d="M39.7989897,14.2594638 L45.7877829,11.4897044 L37.1510284,8.30801432 C35.8399745,7.82139614 34.3335839,8.51943756 33.8475402,9.83049149 C33.3666672,11.1409709 34.0647087,12.6525322 35.3751881,13.1334052 L39.2491743,14.5605121 C39.4502562,14.4657163 39.5933116,14.3490888 39.7989897,14.2594638 Z M49.8410193,6.44714504 C50.3488947,5.07863915 49.6669398,3.60901778 48.3191167,3.14365683 C47.0086372,2.66278385 45.4970759,3.36082528 45.0156284,4.67187921 L43.9430002,7.59446086 L48.7683911,9.37030122 L49.8410193,6.44714504 Z M50.6240896,25.3856121 L45.7291819,14.7828512 L42.9967663,16.0456455 L47.8910995,26.6484063 L50.6240896,25.3856121 Z M54.8203815,23.4454591 C57.753879,22.0924652 59.0281637,18.6355802 57.6688501,15.696912 C56.3164307,12.7582438 52.8595458,11.4845337 49.9260482,12.8426982 L49.1918121,13.1810903 L54.0855708,23.7890219 L54.8203815,23.4454591 Z M60.3018738,14.4335432 C62.3523346,18.8791766 60.4230975,24.1222433 55.9780386,26.1784492 L47.177546,30.2483467 C43.7947741,31.8070186 39.9207878,31.0250973 37.3681969,28.59373 L33.0972175,27.0557408 L34.671976,22.7635042 C34.5610937,20.5860746 35.2482192,18.4402436 36.5908717,16.732771 L34.3232425,15.8979939 C31.463858,14.8408777 29.9787246,11.6218439 31.0300957,8.75728871 C31.5379711,7.3882083 32.5525728,6.27306558 33.900396,5.65430787 C35.242474,5.03095401 36.7546098,4.9780982 38.1236903,5.48022841 L41.0411012,6.55860186 L42.1137295,3.63544569 C43.1708457,0.776061196 46.3904541,-0.714242877 49.249264,0.337702673 C52.109223,1.39424438 53.5943564,4.6132782 52.5424109,7.47783337 L51.860456,9.32261609 C55.3437689,9.1537073 58.7581394,11.0881151 60.3018738,14.4335432 Z M38.1920581,24.697912 C39.2813474,27.0660822 41.8126812,28.3713909 44.2704764,28.023232 L39.603653,17.9116854 C37.7485289,19.5611315 37.0981726,22.335487 38.1920581,24.697912 Z" id="Fill-13" fill="#000001"></path>
                <path d="M42.9442552,41.131703 C39.6603006,41.131703 36.7589762,42.2795933 34.8148016,44.2559411 C34.7188568,42.6300503 33.4434231,41.4183883 31.8175323,41.4183883 C30.0962714,41.4183883 28.7886645,42.7575937 28.7886645,44.4794292 L28.7886645,71.0044287 C28.7886645,72.7262642 29.9049563,74.0648951 31.5946187,74.0648951 C33.3158797,74.0648951 34.3999983,72.7262642 34.3999983,71.0044287 L34.3999983,56.3708377 C34.3999983,50.5044172 37.5564095,47.1250924 42.720767,47.1250924 C44.3788308,47.1250924 45.8134065,45.7864615 45.8134065,44.1283977 C45.8134065,42.4709084 44.5701459,41.131703 42.9442552,41.131703" id="Fill-15" fill="#FF8B08"></path>
                <path d="M61.308145,68.6132778 C55.5692679,68.6132778 52.7960613,65.0104648 52.7960613,57.6140983 C52.7960613,50.249905 55.5692679,46.6786906 61.308145,46.6786906 C67.0464477,46.6786906 69.8202288,50.249905 69.8202288,57.6140983 C69.8202288,65.0426379 67.0464477,68.6132778 61.308145,68.6132778 M61.308145,40.9719865 C51.839486,40.9719865 46.6429555,46.8700056 46.6429555,57.6140983 C46.6429555,68.3903641 51.839486,74.3199819 61.308145,74.3199819 C70.7762295,74.3199819 75.9733346,68.3903641 75.9733346,57.6140983 C75.9733346,46.9021787 70.7762295,40.9719865 61.308145,40.9719865" id="Fill-17" fill="#FF8B08"></path>
                <path d="M114.96455,41.3867323 C113.689116,41.3867323 112.573399,42.1519925 112.126997,43.36308 L105.527489,62.1734291 L100.139069,43.4268517 C99.8207851,42.4070792 98.8326113,41.3867323 97.2699177,41.3867323 C95.7077987,41.3867323 94.6874517,42.4070792 94.4007664,43.4590248 L89.0129207,62.2050277 L82.4134131,43.3952531 L82.4134131,43.36308 C81.9354127,42.1519925 80.851294,41.3867323 79.5758603,41.3867323 C77.8540248,41.3867323 76.5153939,42.7259377 76.5153939,44.4471987 C76.5153939,44.8298288 76.6107642,45.2762306 76.7704807,45.6904593 L86.3666831,72.0247182 C86.845258,73.2363803 87.9288021,74.0016405 89.2042358,74.0016405 C90.5750398,74.0016405 91.7861273,73.1088369 92.1377333,71.8012301 L97.2383191,54.2347161 L102.338905,71.7696315 C102.721535,73.0766638 103.933197,73.9694674 105.272402,73.9694674 C106.547836,73.9694674 107.663553,73.2042072 108.141554,71.9609466 L117.737756,45.6266876 C117.896898,45.2124589 117.992843,44.7660571 117.992843,44.383427 C117.992843,42.7259377 116.653637,41.3867323 114.96455,41.3867323" id="Fill-19" fill="#FF8B08"></path>
                <path d="M140.947547,60.5155951 C140.947547,65.7442988 138.524798,68.6450487 133.551181,68.6450487 C127.908248,68.6450487 125.421727,65.1381805 125.421727,57.6458693 C125.421727,50.2816759 127.908248,46.711036 133.455811,46.711036 C138.397254,46.711036 140.469547,50.823448 140.915374,51.7162516 L140.915374,60.5155951 L140.947547,60.5155951 Z M143.975841,25.0315356 C142.25458,25.0315356 140.947547,26.370741 140.947547,28.092002 L140.947547,43.8097116 C139.640515,42.2791912 136.675419,40.9721589 133.296094,40.9721589 C126.856303,40.9721589 119.363992,43.8734833 119.363992,57.6142707 C119.363992,63.0980611 120.703197,67.3064179 123.221317,70.1433961 C125.676239,72.9171771 129.279052,74.3201542 133.837866,74.3201542 C137.887081,74.3201542 141.011319,73.1084922 143.40247,70.8448846 C145.953337,68.4221351 147.037456,64.8514952 147.037456,60.483422 L147.037456,28.092002 C147.005283,26.370741 145.666077,25.0315356 143.975841,25.0315356 Z" id="Fill-21" fill="#FF8B08"></path>
                <g id="Group-25" transform="translate(149.949639, 41.207425)">
                    <mask id="mask-2" fill="white">
                        <use xlink:href="#path-1"></use>
                    </mask>
                    <g id="Clip-24"></g>
                    <path d="M26.0991655,0.179307595 C24.7605346,0.179307595 23.7717863,0.880796135 23.2621873,2.15565532 L14.9408441,22.5281235 L6.62007547,2.15565532 C6.10990199,0.880796135 5.08955502,0.179307595 3.78252273,0.179307595 C2.06068722,0.179307595 0.722056345,1.51851299 0.722056345,3.23977398 C0.722056345,3.78212056 0.849599716,4.16475068 0.944969984,4.38766432 L0.976568567,4.48303458 L11.7528344,30.0842064 C9.20254147,36.3964543 7.86333608,39.584464 2.92131771,39.584464 C1.29542699,39.584464 0.0199932852,40.8598977 0.0199932852,42.4857884 C0.0199932852,44.1116792 1.29542699,45.3871129 2.92131771,45.3871129 C9.10659668,45.3871129 13.0282681,42.326072 16.0249628,35.1210206 L28.9051197,4.48303458 L28.9688914,4.32389263 C29.0642616,4.10040447 29.191805,3.74994746 29.191805,3.17600229 C29.1602064,1.51851299 27.821001,0.179307595 26.0991655,0.179307595" id="Fill-23" fill="#FF8B08" mask="url(#mask-2)"></path>
                </g>
                <g id="Group-28" transform="translate(0.000000, 24.546354)">
                    <mask id="mask-4" fill="white">
                        <use xlink:href="#path-3"></use>
                    </mask>
                    <g id="Clip-27"></g>
                    <path d="M24.8996259,44.5772125 L13.932045,29.9436215 L20.467781,23.9818307 C21.679443,22.8655389 21.7753878,20.985136 20.659096,19.7734739 C19.5433788,18.5618119 17.6618268,18.4664416 16.4507393,19.5821589 L6.05767815,29.0508179 L6.05767815,28.7003609 L6.05767815,3.32267717 C6.05767815,1.60084166 4.75064586,0.262210786 3.02881035,0.262210786 C1.30754936,0.262210786 -5.74519689e-05,1.60084166 -5.74519689e-05,3.32267717 L-5.74519689e-05,46.2031032 C-5.74519689e-05,47.9249387 1.33914794,49.2635696 3.02881035,49.2635696 C4.75064586,49.2635696 6.05767815,47.9249387 6.05767815,46.2031032 L6.05767815,37.1170743 L9.50077464,33.9606631 L20.1489226,48.1478523 C20.7228677,48.9447111 21.6472699,49.3273413 22.540648,49.3273413 C23.1777904,49.3273413 23.7839086,49.1360262 24.3256807,48.7217975 C25.6321385,47.7652222 25.8877997,45.8842448 24.8996259,44.5772125" id="Fill-26" fill="#F08700" mask="url(#mask-4)"></path>
                </g>
            </g>
        </g>
    </g>
</svg>